HIERARCHY
ROOT SpineBase
{
  OFFSET 0.000000 0.000000 0.000000
  CHANNELS 6 Xposition Yposition Zposition Zrotation Xrotation Yrotation
  JOINT SpineMid
  {
    OFFSET 0.000000 27.425963 0.000000
    CHANNELS 3 Zrotation Xrotation Yrotation
    JOINT SpineShoulder
    {
      OFFSET 0.164223 20.562621 -0.755278
      CHANNELS 3 Zrotation Xrotation Yrotation
      JOINT Neck
      {
        OFFSET 0.126032 6.870457 -0.551566
        CHANNELS 3 Zrotation Xrotation Yrotation
        JOINT Head
        {
          OFFSET 3.266072 13.109754 -0.774951
          CHANNELS 3 Zrotation Xrotation Yrotation
          End Site
          {
            OFFSET 0 0 0
          }
        }
      }
      JOINT ShoulderLeft
      {
        OFFSET -10.660527 -0.965561 -10.597147
        CHANNELS 3 Zrotation Xrotation Yrotation
        JOINT ElbowLeft
        {
          OFFSET -0.686257 -22.031798 -7.227851
          CHANNELS 3 Zrotation Xrotation Yrotation
          JOINT WristLeft
          {
            OFFSET -13.440422 -17.221928 0.074507
            CHANNELS 3 Zrotation Xrotation Yrotation
            JOINT HandLeft
            {
              OFFSET 2.845019 -4.478633 -0.885730
              CHANNELS 3 Zrotation Xrotation Yrotation
              JOINT HandTipLeft
              {
                OFFSET 0.556535 -3.848225 -1.201012
                CHANNELS 3 Zrotation Xrotation Yrotation
                End Site
                {
                  OFFSET 0 0 0
                }
              }
              JOINT ThumbLeft
              {
                OFFSET -1.864876 2.719731 -2.022059
                CHANNELS 3 Zrotation Xrotation Yrotation
                End Site
                {
                  OFFSET 0 0 0
                }
              }
            }
          }
        }
      }
      JOINT ShoulderRight
      {
        OFFSET 13.154452 -2.357558 9.009799
        CHANNELS 3 Zrotation Xrotation Yrotation
        JOINT ElbowRight
        {
          OFFSET 4.581578 -24.595894 -5.451151
          CHANNELS 3 Zrotation Xrotation Yrotation
          JOINT WristRight
          {
            OFFSET 9.945813 -9.631787 -15.140012
            CHANNELS 3 Zrotation Xrotation Yrotation
            JOINT HandRight
            {
              OFFSET 0.067926 -1.717199 -4.821797
              CHANNELS 3 Zrotation Xrotation Yrotation
              JOINT HandTipRight
              {
                OFFSET 1.399786 -3.199338 -2.404891
                CHANNELS 3 Zrotation Xrotation Yrotation
                End Site
                {
                  OFFSET 0 0 0
                }
              }
              JOINT ThumbRight
              {
                OFFSET 2.496748 -2.845250 0.579935
                CHANNELS 3 Zrotation Xrotation Yrotation
                End Site
                {
                  OFFSET 0 0 0
                }
              }
            }
          }
        }
      }
    }
  }
  JOINT HipLeft
  {
    OFFSET -5.051690 1.383023 -6.820900
    CHANNELS 3 Zrotation Xrotation Yrotation
    JOINT KneeLeft
    {
      OFFSET 20.221735 0.914628 -27.798133
      CHANNELS 3 Zrotation Xrotation Yrotation
      JOINT AnkleLeft
      {
        OFFSET 8.102200 -33.542819 5.493852
        CHANNELS 3 Zrotation Xrotation Yrotation
        JOINT FootLeft
        {
          OFFSET -7.799370 -3.337897 -7.565724
          CHANNELS 3 Zrotation Xrotation Yrotation
          End Site
          {
            OFFSET 0 0 0
          }
        }
      }
    }
  }
  JOINT HipRight
  {
    OFFSET 6.303077 0.581391 0.699765
    CHANNELS 3 Zrotation Xrotation Yrotation
    JOINT KneeRight
    {
      OFFSET 31.927856 0.914423 -8.491969
      CHANNELS 3 Zrotation Xrotation Yrotation
      JOINT AnkleRight
      {
        OFFSET -0.483770 -32.277276 -7.839059
        CHANNELS 3 Zrotation Xrotation Yrotation
        JOINT FootRight
        {
          OFFSET 6.213711 -4.188572 -9.279367
          CHANNELS 3 Zrotation Xrotation Yrotation
          End Site
          {
            OFFSET 0 0 0
          }
        }
      }
    }
  }
}
MOTION
Frames: 6
Frame Time: 0.033333
-79.097993 28.932827 403.911469 -15.244005 -9.453027 -49.279818 0.051354 -0.224241 47.514509 0.520820 0.335867 -0.525332 3.336481 3.588605 1.855294 0.000000 0.000000 0.000000 31.356724 -15.232380 -4.597957 79.164577 11.533220 -72.201251 -84.554308 -61.339608 -9.383280 28.200312 53.124575 -15.558831 0.000000 0.000000 0.000000 0.000000 0.000000 0.000000 12.638061 12.967824 1.243735 -2.966288 -4.692424 5.299905 -5.140655 -45.621347 -33.710618 13.794302 49.151455 -11.674539 0.000000 0.000000 0.000000 0.000000 0.000000 0.000000 -0.776871 31.546019 53.992970 -14.166683 -9.313318 -7.159246 29.958360 -20.485885 -51.155141 0.000000 0.000000 0.000000 8.383144 27.735158 53.275150 -14.272288 -2.703679 -7.342613 2.892946 -0.296655 -2.685929 0.000000 0.000000 0.000000
-80.169107 28.233222 403.002320 -17.345056 -9.013931 -48.996450 0.477314 -0.333367 46.972470 0.557898 0.191679 -0.620705 4.750663 2.336097 2.081304 0.000000 0.000000 0.000000 31.996850 -14.983683 -4.325891 71.668211 23.645275 -81.891685 -54.540955 -60.005592 14.429676 11.240143 37.704120 -4.837827 0.000000 0.000000 0.000000 0.000000 0.000000 0.000000 10.952373 11.640141 2.346834 -0.393767 -7.610515 1.397888 -3.754132 -49.103572 -28.278380 8.661383 56.585093 -7.451398 0.000000 0.000000 0.000000 0.000000 0.000000 0.000000 1.179221 34.621176 50.195826 -15.040812 -10.376028 -4.154232 33.994138 -29.280750 -51.093894 0.000000 0.000000 0.000000 11.050267 29.595445 50.766722 -15.098305 -3.445305 -6.091965 2.260039 -0.084333 -1.443447 0.000000 0.000000 0.000000
-80.692734 27.836197 402.953788 -18.184287 -9.530434 -47.976125 0.385016 -0.242192 45.788962 0.369600 0.091527 -0.663604 4.754852 1.965621 2.264061 0.000000 0.000000 0.000000 33.348732 -14.067536 -4.779458 59.355572 39.159034 -82.837653 -28.065220 -45.925491 35.231402 -0.357224 17.656330 -5.277708 0.000000 0.000000 0.000000 0.000000 0.000000 0.000000 9.231202 10.817287 3.100678 2.764419 -9.316189 -3.574196 -4.510105 -58.398215 -26.624824 -7.526820 70.283827 10.067218 0.000000 0.000000 0.000000 0.000000 0.000000 0.000000 2.207700 36.221475 47.349882 -15.749162 -10.562142 -2.909125 37.246934 -34.122732 -47.033482 0.000000 0.000000 0.000000 12.326740 30.798768 48.762357 -15.509546 -3.496707 -5.852041 1.572729 -0.263042 -0.191927 0.000000 0.000000 0.000000
-80.650486 27.882865 403.060101 -18.059237 -10.139485 -47.836961 0.241285 -0.301976 45.590114 0.503189 0.165276 -0.651428 1.709127 1.006432 2.592051 0.000000 0.000000 0.000000 36.111376 -11.754122 -6.351010 40.412846 51.115683 -74.185431 -23.035935 -31.985756 43.330630 -4.529636 -5.347362 -12.883380 0.000000 0.000000 0.000000 0.000000 0.000000 0.000000 6.898627 9.447621 3.515567 5.472821 -9.382929 -7.091216 -22.209504 -68.371785 -55.225827 -89.370274 66.540165 100.739672 0.000000 0.000000 0.000000 0.000000 0.000000 0.000000 2.028110 35.756536 46.520221 -16.006323 -9.859133 -2.464454 46.842443 -42.628902 -32.145011 0.000000 0.000000 0.000000 12.348758 31.701839 48.035974 -15.747742 -3.058431 -5.681266 0.906014 -0.892582 0.622684 0.000000 0.000000 0.000000
-80.560605 27.762447 403.043751 -18.069242 -10.503439 -46.833246 0.178755 -0.113667 44.550812 0.535873 0.185728 -0.643862 0.284983 0.281381 2.749948 0.000000 0.000000 0.000000 39.408321 -10.035939 -8.016349 15.387951 56.500063 -55.823845 -26.161125 -28.587752 42.835173 -3.675054 -18.153219 -18.035493 0.000000 0.000000 0.000000 0.000000 0.000000 0.000000 3.549058 6.770199 4.003316 10.204412 -7.433732 -10.905512 -64.714259 -77.420281 -98.993653 -118.916651 47.058145 137.901327 0.000000 0.000000 0.000000 0.000000 0.000000 0.000000 2.554729 35.585684 45.411913 -16.385023 -9.250319 -2.693776 67.664333 -54.178838 -12.638161 0.000000 0.000000 0.000000 12.929779 31.862804 45.854234 -15.541634 -2.375615 -4.894161 0.409705 -1.725480 1.295817 0.000000 0.000000 0.000000
-80.340522 27.980256 403.003066 -17.716155 -10.510500 -45.187184 0.331172 0.319706 42.956852 0.586386 0.151038 -0.618003 -2.752929 -0.433009 2.842142 0.000000 0.000000 0.000000 43.383753 -8.283448 -10.178264 -8.738643 54.111669 -36.348070 -36.175291 -33.967662 32.967962 7.073246 -22.957086 -17.732484 0.000000 0.000000 0.000000 0.000000 0.000000 0.000000 -0.319157 2.938715 4.011441 14.687455 -3.310397 -12.401633 -84.083815 -69.454431 -132.402814 -115.169647 31.324730 138.180220 0.000000 0.000000 0.000000 0.000000 0.000000 0.000000 3.457056 34.627587 43.991419 -16.584385 -8.284749 -3.155989 95.352720 -60.829832 10.207735 0.000000 0.000000 0.000000 13.579815 31.075817 43.096845 -15.193398 -1.768839 -3.889414 0.282401 -2.172513 1.854243 0.000000 0.000000 0.000000
